<svg width="32" height="32" viewBox="0 0 32 32" fill="none" xmlns="http://www.w3.org/2000/svg">
<path d="M16.0023 23.3304C14.0437 23.3304 12.2037 22.5689 10.82 21.1823C9.43632 19.7986 8.67188 17.9556 8.67188 16C8.67188 14.0445 9.43336 12.2015 10.82 10.8178C12.2067 9.43412 14.0467 8.66968 16.0023 8.66968C17.9578 8.66968 19.8008 9.43116 21.1845 10.8178C22.5682 12.2015 23.3326 14.0445 23.3326 16C23.3326 17.9556 22.5712 19.7986 21.1845 21.1823C19.8008 22.5689 17.9608 23.3304 16.0023 23.3304ZM16.0023 10.7438C13.1045 10.7438 10.746 13.1023 10.746 16C10.746 18.8978 13.1045 21.2563 16.0023 21.2563C18.9 21.2563 21.2586 18.8978 21.2586 16C21.2586 13.1023 18.9 10.7438 16.0023 10.7438Z" fill="#757575"/>
<path d="M15.998 7.35995C15.4261 7.35995 14.9609 6.89476 14.9609 6.32291V1.7155C14.9609 1.14365 15.4261 0.678467 15.998 0.678467C16.5698 0.678467 17.035 1.14365 17.035 1.7155V6.32587C17.035 6.89773 16.5698 7.35995 15.998 7.35995Z" fill="#757575"/>
<path d="M9.15495 10.1954C8.88829 10.1954 8.62458 10.0947 8.4231 9.89022L5.16382 6.63097C4.75789 6.22504 4.75789 5.57023 5.16382 5.16431C5.56975 4.75838 6.22457 4.75838 6.6305 5.16431L9.88977 8.42356C10.2957 8.82948 10.2957 9.48429 9.88977 9.89022C9.68533 10.0947 9.41866 10.1954 9.15495 10.1954Z" fill="#757575"/>
<path d="M6.32412 17.037H1.71672C1.14487 17.037 0.679688 16.5718 0.679688 15.9999C0.679688 15.4281 1.14487 14.9629 1.71672 14.9629H6.32708C6.89893 14.9629 7.36412 15.4281 7.36412 15.9999C7.36412 16.5718 6.89893 17.037 6.32412 17.037Z" fill="#757575"/>
<path d="M5.89568 27.1378C5.62901 27.1378 5.3653 27.0371 5.16382 26.8326C4.75789 26.4267 4.75789 25.7719 5.16382 25.366L8.4231 22.1067C8.82903 21.7008 9.48385 21.7008 9.88977 22.1067C10.2957 22.5126 10.2957 23.1674 9.88977 23.5734L6.6305 26.8326C6.42605 27.0371 6.16235 27.1378 5.89568 27.1378Z" fill="#757575"/>
<path d="M15.998 31.3214C15.4261 31.3214 14.9609 30.8562 14.9609 30.2843V25.6769C14.9609 25.1051 15.4261 24.6399 15.998 24.6399C16.5698 24.6399 17.035 25.1051 17.035 25.6769V30.2873C17.035 30.8562 16.5698 31.3214 15.998 31.3214Z" fill="#757575"/>
<path d="M26.1003 27.1378C25.8336 27.1378 25.5699 27.0371 25.3684 26.8326L22.1091 23.5734C21.7032 23.1674 21.7032 22.5126 22.1091 22.1067C22.5151 21.7008 23.1699 21.7008 23.5758 22.1067L26.8351 25.366C27.241 25.7719 27.241 26.4267 26.8351 26.8326C26.6306 27.0371 26.3669 27.1378 26.1003 27.1378Z" fill="#757575"/>
<path d="M30.2851 17.037H25.6777C25.1058 17.037 24.6406 16.5718 24.6406 15.9999C24.6406 15.4281 25.1058 14.9629 25.6777 14.9629H30.288C30.8599 14.9629 31.3251 15.4281 31.3251 15.9999C31.3251 16.5718 30.8569 17.037 30.2851 17.037Z" fill="#757575"/>
<path d="M22.841 10.1954C22.5743 10.1954 22.3106 10.0947 22.1091 9.89022C21.7032 9.48429 21.7032 8.82948 22.1091 8.42356L25.3684 5.16431C25.7743 4.75838 26.4291 4.75838 26.8351 5.16431C27.241 5.57023 27.241 6.22504 26.8351 6.63097L23.5758 9.89022C23.3714 10.0947 23.1077 10.1954 22.841 10.1954Z" fill="#757575"/>
</svg>
